<svg id="Group_56850" data-name="Group 56850" xmlns="http://www.w3.org/2000/svg" width="20" height="20" viewBox="0 0 20 20">
  <rect id="Rectangle_14688" data-name="Rectangle 14688" width="20" height="20" rx="4" fill="#fff"/>
  <path id="icons8_term_1" d="M2.111,3A1.119,1.119,0,0,0,1,4.111v7.778A1.119,1.119,0,0,0,2.111,13h.556a.556.556,0,1,0,0-1.111H2.111V4.111h.556A.556.556,0,1,0,2.667,3Zm9.444,0a.556.556,0,1,0,0,1.111h.556v7.778h-.556a.556.556,0,1,0,0,1.111h.556a1.119,1.119,0,0,0,1.111-1.111V4.111A1.119,1.119,0,0,0,12.111,3ZM3.778,5.222a.556.556,0,1,0,0,1.111h6.667a.556.556,0,1,0,0-1.111Zm0,2.222a.556.556,0,1,0,0,1.111h5a.556.556,0,1,0,0-1.111Zm0,2.222a.556.556,0,1,0,0,1.111h6.667a.556.556,0,1,0,0-1.111Z" transform="translate(3.393 2)" fill="#d0d4e6"/>
</svg>
